<svg width="512" height="237" viewBox="0 0 512 237" fill="none" xmlns="http://www.w3.org/2000/svg">
<rect width="512" height="237" rx="16" fill="black"/>
<path d="M434.068 43.499C375.509 51.4275 241.938 106.689 189.339 137.611C189.339 133.678 185.186 128.783 183.109 126.828C273.044 78.4321 375.685 51.4037 434.068 43.499Z" fill="white"/>
<path d="M89.7049 126.986V141.526H42.8549V179.297H89.7049V193.269H40.099C34.2391 192.619 31.0336 188.639 30.3809 185.227V137.708C30.961 130.43 35.7476 126.986 39.9539 126.986H89.7049Z" fill="white"/>
<path d="M175.641 126.993C183.181 126.733 186.517 134.085 187.242 137.794V178.883C187.01 190.446 178.469 193.446 174.118 193.5L140.402 193.338C131.049 193.338 127.352 186.672 127.352 182.781V141.366C128.338 130.518 134.868 127.264 138.01 126.993H175.641ZM139.256 139.978V180.581H175.509V139.978H139.256Z" fill="white"/>
<path d="M239.918 149.186V191.921H227.176V126.986H239.918L259.882 152.992L279.421 126.986H292.163V191.921H279.421V149.186L259.245 174.795L239.918 149.186Z" fill="white"/>
<rect x="332.104" y="126.669" width="53.519" height="14.2713" fill="white"/>
<rect x="332.104" y="152.2" width="45.024" height="14.2713" fill="white"/>
<rect x="332.104" y="177.729" width="53.519" height="14.2713" fill="white"/>
<rect x="423.287" y="126.669" width="58.3329" height="13.637" fill="white"/>
<rect x="458.531" y="126.669" width="65.331" height="12.1763" transform="rotate(90 458.531 126.669)" fill="white"/>
</svg>
